<svg id="Capa_1" enable-background="new 0 0 507.882 507.882" height="512" viewBox="0 0 507.882 507.882" width="512" xmlns="http://www.w3.org/2000/svg"><path d="m248.941 315.177h-217.823c-17.185 0-31.118-13.933-31.118-31.118s13.933-31.118 31.118-31.118h217.823c17.185 0 31.118 13.933 31.118 31.118s-13.934 31.118-31.118 31.118z"/><path d="m93.353 408.53h-62.235c-17.185 0-31.118-13.933-31.118-31.118s13.933-31.118 31.118-31.118h62.235c17.185 0 31.118 13.933 31.118 31.118-.001 17.185-13.934 31.118-31.118 31.118z"/><path id="path-1" d="m466.764 346.294h-124.47c-17.185 0-31.118-13.933-31.118-31.118s13.933-31.118 31.118-31.118h124.47c17.185 0 31.118 13.933 31.118 31.118s-13.934 31.118-31.118 31.118z" transform="translate(10 9)"/><path d="m466.764 439.647h-280.058c-17.185 0-31.118-13.933-31.118-31.118s13.933-31.118 31.118-31.118h280.058c17.185 0 31.118 13.933 31.118 31.118-.001 17.185-13.934 31.118-31.118 31.118z"/><path d="m435.646 159.589h-202.264c-17.185 0-31.118-13.933-31.118-31.118s13.933-31.118 31.118-31.118h202.264c17.185 0 31.118 13.933 31.118 31.118s-13.933 31.118-31.118 31.118z"/><path id="path-1_1_" d="m155.588 128.471h-124.47c-17.185 0-31.118-13.933-31.118-31.117s13.933-31.118 31.118-31.118h124.47c17.185 0 31.118 13.933 31.118 31.118s-13.933 31.117-31.118 31.117z" transform="translate(0 2)"/><path id="path-2" d="m186.706 221.824h-155.588c-17.185 0-31.118-13.933-31.118-31.117s13.933-31.118 31.118-31.118h155.588c17.185 0 31.118 13.933 31.118 31.118s-13.934 31.117-31.118 31.117z" transform="translate(0 5)"/><path id="path-2_1_" d="m466.764 252.942h-155.588c-17.185 0-31.118-13.933-31.118-31.118s13.933-31.118 31.118-31.118h155.588c17.185 0 31.118 13.933 31.118 31.118s-13.934 31.118-31.118 31.118z" transform="translate(9 6)"/></svg>