<?xml version="1.0" encoding="iso-8859-1"?>
<!-- Generator: Adobe Illustrator 19.0.0, SVG Export Plug-In . SVG Version: 6.00 Build 0)  -->
<svg version="1.1" id="Layer_1" xmlns="http://www.w3.org/2000/svg" xmlns:xlink="http://www.w3.org/1999/xlink" x="0px" y="0px"
	 viewBox="0 0 503.467 503.467" style="enable-background:new 0 0 503.467 503.467;" xml:space="preserve">
<path style="fill:#ECF4F7;" d="M192,72.533c-51.2,0-102.4,12.8-102.4,51.2s-68.267,59.733-68.267,102.4S102.4,307.2,102.4,328.533
	s-38.4,12.8-38.4,51.2s59.733,51.2,85.333,51.2s162.133,0,196.267,0s59.733-21.333,59.733-51.2s-34.133-29.867-34.133-51.2
	s115.2-42.667,115.2-102.4c0-68.267-76.8-153.6-140.8-153.6S243.2,72.533,192,72.533z"/>
<path style="fill:#51565F;" d="M362.667,435.2H140.8c-2.56,0-4.267-1.707-4.267-4.267c0-2.56,1.707-4.267,4.267-4.267h221.867
	c2.56,0,4.267,1.707,4.267,4.267C366.933,433.493,365.227,435.2,362.667,435.2z M413.867,384H243.2c-2.56,0-4.267-1.707-4.267-4.267
	c0-2.56,1.707-4.267,4.267-4.267h170.667c2.56,0,4.267,1.707,4.267,4.267C418.133,382.293,416.427,384,413.867,384z M209.067,384
	h-153.6c-2.56,0-4.267-1.707-4.267-4.267c0-2.56,1.707-4.267,4.267-4.267h153.6c2.56,0,4.267,1.707,4.267,4.267
	C213.333,382.293,211.627,384,209.067,384z M379.733,332.8H192c-2.56,0-4.267-1.707-4.267-4.267c0-2.56,1.707-4.267,4.267-4.267
	h187.733c2.56,0,4.267,1.707,4.267,4.267C384,331.093,382.293,332.8,379.733,332.8z M157.867,332.8H89.6
	c-2.56,0-4.267-1.707-4.267-4.267c0-2.56,1.707-4.267,4.267-4.267h68.267c2.56,0,4.267,1.707,4.267,4.267
	C162.133,331.093,160.427,332.8,157.867,332.8z M465.067,281.6H277.333c-2.56,0-4.267-1.707-4.267-4.267s1.707-4.267,4.267-4.267
	h187.733c2.56,0,4.267,1.707,4.267,4.267S467.627,281.6,465.067,281.6z M243.2,281.6H55.467c-2.56,0-4.267-1.707-4.267-4.267
	s1.707-4.267,4.267-4.267H243.2c2.56,0,4.267,1.707,4.267,4.267S245.76,281.6,243.2,281.6z M499.2,230.4H140.8
	c-2.56,0-4.267-1.707-4.267-4.267s1.707-4.267,4.267-4.267h358.4c2.56,0,4.267,1.707,4.267,4.267S501.76,230.4,499.2,230.4z
	 M106.667,230.4H4.267c-2.56,0-4.267-1.707-4.267-4.267s1.707-4.267,4.267-4.267h102.4c2.56,0,4.267,1.707,4.267,4.267
	S109.227,230.4,106.667,230.4z M413.867,179.2H345.6c-2.56,0-4.267-1.707-4.267-4.267c0-2.56,1.707-4.267,4.267-4.267h68.267
	c2.56,0,4.267,1.707,4.267,4.267C418.133,177.493,416.427,179.2,413.867,179.2z M311.467,179.2H38.4
	c-2.56,0-4.267-1.707-4.267-4.267c0-2.56,1.707-4.267,4.267-4.267h273.067c2.56,0,4.267,1.707,4.267,4.267
	C315.733,177.493,314.027,179.2,311.467,179.2z M430.933,128H243.2c-2.56,0-4.267-1.707-4.267-4.267c0-2.56,1.707-4.267,4.267-4.267
	h187.733c2.56,0,4.267,1.707,4.267,4.267C435.2,126.293,433.493,128,430.933,128z M209.067,128H89.6
	c-2.56,0-4.267-1.707-4.267-4.267c0-2.56,1.707-4.267,4.267-4.267h119.467c2.56,0,4.267,1.707,4.267,4.267
	C213.333,126.293,211.627,128,209.067,128z M396.8,76.8H174.933c-2.56,0-4.267-1.707-4.267-4.267c0-2.56,1.707-4.267,4.267-4.267
	H396.8c2.56,0,4.267,1.707,4.267,4.267C401.067,75.093,399.36,76.8,396.8,76.8z"/>
<g>
</g>
<g>
</g>
<g>
</g>
<g>
</g>
<g>
</g>
<g>
</g>
<g>
</g>
<g>
</g>
<g>
</g>
<g>
</g>
<g>
</g>
<g>
</g>
<g>
</g>
<g>
</g>
<g>
</g>
</svg>
